<?xml version="1.0" encoding="UTF-8" ?>
<!DOCTYPE svg PUBLIC "-//W3C//DTD SVG 1.1//EN" "http://www.w3.org/Graphics/SVG/1.1/DTD/svg11.dtd">
<svg width="130pt" height="153pt" viewBox="0 0 130 153" version="1.1" xmlns="http://www.w3.org/2000/svg">
<g id="#ffb500ff">
<path fill="#ffb500" opacity="1.00" d=" M 14.41 0.00 L 115.54 0.00 C 122.93 0.43 129.56 6.22 130.00 13.80 L 130.00 114.20 C 129.56 121.87 122.65 127.77 115.15 127.93 C 105.13 128.09 95.11 127.97 85.09 127.99 C 77.84 136.22 70.92 144.76 63.68 153.00 L 63.30 153.00 C 56.22 144.67 49.13 136.35 42.07 128.00 C 32.69 127.90 23.31 128.21 13.95 127.85 C 6.76 127.36 0.44 121.51 0.00 114.20 L 0.00 13.81 C 0.44 6.25 7.02 0.45 14.41 0.00 Z" />
</g>
</svg>
