<?xml version="1.0" encoding="UTF-8" ?>
<!DOCTYPE svg PUBLIC "-//W3C//DTD SVG 1.1//EN" "http://www.w3.org/Graphics/SVG/1.1/DTD/svg11.dtd">
<svg width="130pt" height="153pt" viewBox="0 0 130 153" version="1.1" xmlns="http://www.w3.org/2000/svg">
<g id="#00a5faff">
<path fill="#00a5fa" opacity="1.00" d=" M 14.40 0.00 L 115.52 0.00 C 122.93 0.43 129.56 6.22 130.00 13.80 L 130.00 114.17 C 129.58 121.86 122.63 127.79 115.12 127.94 C 105.11 128.09 95.10 127.97 85.10 127.99 C 77.84 136.22 70.92 144.75 63.68 153.00 L 63.29 153.00 C 56.22 144.66 49.12 136.35 42.06 128.00 C 32.68 127.90 23.27 128.21 13.89 127.84 C 6.73 127.33 0.44 121.49 0.00 114.20 L 0.00 13.83 C 0.42 6.26 7.02 0.46 14.40 0.00 Z" />
</g>
</svg>
